<svg xmlns="http://www.w3.org/2000/svg" height="800" width="1200" version="1.0" viewBox="-46.113375 -24.4925 399.64925 146.955"><path d="M0 49.0025C0 22.0175 21.9513 0 49.0338 0c14.735 0 27.9675 6.655 36.9575 16.8975H54.5575c-3.885 0-8.1725 2.6763-10.1987 4.7813-2.0288 2.1037-21.86 21.94-24.45 24.365-2.5888 2.43-4.45 2.96-7.8513 2.96zM21.53 63.025c3.4013 0 5.2625-.3812 7.85-2.8087 2.5938-2.4325 22.3475-22.1063 24.455-24.3675 1.98-2.145 6.3113-4.8513 10.195-4.8513h30.6363c-1.3825-3.4762-3.1988-6.7825-5.3013-9.8175l-23.3912-.0038c-3.3988 0-6.5175 1.7625-8.3663 3.5587-1.9175 1.8526-22.2388 22.12-24.18 24.1463 0 0-3.4775 4.4425-10.3638 4.4425l-22.88.0063c.3013 3.3888.9538 6.55 1.91 9.7063zm10.5213 14.2363c3.4037 0 5.2737-.5213 7.8537-2.9613 2.9963-2.8375 22.1025-22.3412 24.4513-24.8562 1.9962-2.1276 6.315-4.7726 10.2012-4.7726l23.3663.0088c-.27-3.4426-.8938-6.2738-1.8325-9.4726l-19.5113-.01c-3.4025 0-6.69 1.8125-8.585 3.565-2.185 2.0188-22.0725 22.0475-24.12 24.04 0 0-3.325 4.4538-10.2025 4.4538l-30.1413.005c1.435 3.5588 3.2913 6.8988 5.485 9.9838zm-19.62 4.25C21.4075 91.5425 34.48 97.97 49.0337 97.97c26.9225 0 48.7625-22.2263 49.0225-48.995L86.05 48.9638c-3.4 0-6.7987 1.6962-8.5787 3.5575-1.7825 1.8625-22.0275 22.665-23.9175 24.5312 0 0-3.635 4.455-10.5213 4.455zM164.745 54.8c-1.81-3.0162-4.1125-7.655-14.49-10.2912-10.8525-2.755-15.2238-3.8038-18.1388-4.4538-2.9112-.6475-7.6125-2.1875-7.6125-8.4563 0-5.75 5.7075-8.79 11.7425-8.79 5.8275 0 13.495 2.4775 14.7038 11.49h13.7912zm72.51-41.6688h-23.2087L200.9825 63.56l-13.0587-50.4288h-23.2076l.009 16.2163c-7.0752-18.75-22.684-19.4862-27.4277-19.4862-20.2937 0-27.58 12.6787-27.58 22.015 0 15.0025 12.4163 19.5912 15.8125 20.4537 2.92.745 17.6263 4.2538 20.5125 5.1275 3.5613 1.08 6.3713 4.155 6.3713 7.9937 0 3.6126-2.81 9.6588-13.4963 9.6588-10.6875 0-15.7637-5.8312-16.625-12.8425h-14.355S107.3988 88.17 139.7763 88.17c13.8487 0 21.1175-5.7838 24.9625-11.8938l-.0225 9.1988 14.4587-.0037-.5737-54.2962L193.64 85.4713h14.6825l15.0463-54.2962-.5838 54.2962 14.47.0037.004-13.4475c3.2975 6.7038 10.94 16.1975 27.4437 16.1975 18.6263 0 27.87-11.55 29.47-26.0687h-13.88c-.9937 7.0675-7.3112 12.7337-15.5125 12.7337-2.2662 0-18.515-1.2375-18.515-26.0087 0-17.0563 8.7475-26.7713 18.4625-26.7713 3.0725 0 13.3275 1.295 14.7363 13.4538h13.755C292.1438 18.1275 277.84 9.79 264.7275 9.79c-15.4275 0-24.0162 8.0887-27.4725 14.7037V13.1312m65.9525 72.715l-2.1837-3.8474h-1.8388v3.8474h-.81v-8.8374h2.455c1.6013 0 2.7763.7974 2.7763 2.4062 0 1.53-.8375 2.2525-1.745 2.465l2.32 3.9663zm-2.4987-8.1162h-1.5238v3.5888h1.5413c1.2162 0 2.0425-.6238 2.0425-1.8925 0-1.1338-.93-1.6963-2.06-1.6963zm-.1688 10.75c1.8438 0 3.565-.7137 4.8675-2.0088 1.295-1.3012 2.015-3.0262 2.015-4.865 0-1.8362-.72-3.5674-2.015-4.8624-1.3025-1.3013-3.0237-2.015-4.8675-2.015-3.79 0-6.8737 3.0862-6.8737 6.8774 0 1.8388.715 3.5638 2.0125 4.865 1.3025 1.295 3.03 2.0088 4.8612 2.0088zm-6.0662-6.8738c0-1.63.6262-3.15 1.775-4.2937 1.1462-1.1487 2.675-1.7775 4.2912-1.7775 1.6288 0 3.1513.6288 4.3013 1.7775 1.145 1.1438 1.7762 2.6637 1.7762 4.2938 0 3.3474-2.7212 6.0724-6.0775 6.0724-1.6162 0-3.145-.6362-4.2912-1.78-1.1488-1.1487-1.775-2.6724-1.775-4.2924" fill="#0066b3"/></svg>